{
  "accessors": [
    {
      "bufferView": 2,
      "componentType": 5126,
      "count": 4259,
      "max": [
        16.56692123413086,
        17.596633911132813,
        23.897153854370117
      ],
      "min": [
        -1.5175962448120117,
        11.922159194946289,
        21.69267463684082
      ],
      "type": "VEC3"
    },
    {
      "bufferView": 2,
      "byteOffset": 51108,
      "componentType": 5126,
      "count": 4259,
      "max": [
        1.0,
        1.0,
        1.0
      ],
      "min": [
        -1.0,
        -1.0,
        -1.0
      ],
      "type": "VEC3"
    },
    {
      "bufferView": 3,
      "componentType": 5126,
      "count": 4259,
      "max": [
        1.0,
        1.0,
        0.9984856843948364,
        1.0
      ],
      "min": [
        -1.0,
        -1.0,
        -0.998526930809021,
        -1.0
      ],
      "type": "VEC4"
    },
    {
      "bufferView": 1,
      "componentType": 5126,
      "count": 4259,
      "max": [
        0.998565137386322,
        0.9988405704498291
      ],
      "min": [
        0.0018423116998746991,
        0.0004989348817616701
      ],
      "type": "VEC2"
    },
    {
      "bufferView": 0,
      "componentType": 5125,
      "count": 18063,
      "type": "SCALAR"
    },
    {
      "bufferView": 2,
      "byteOffset": 102216,
      "componentType": 5126,
      "count": 36,
      "max": [
        10.707192420959473,
        15.616321563720703,
        23.66259002685547
      ],
      "min": [
        5.330976486206055,
        13.907334327697754,
        21.927236557006836
      ],
      "type": "VEC3"
    },
    {
      "bufferView": 2,
      "byteOffset": 102648,
      "componentType": 5126,
      "count": 36,
      "max": [
        8.335409233950486e-07,
        0.9396947026252747,
        1.0
      ],
      "min": [
        -1.1233112218178576e-06,
        -0.9396946430206299,
        -1.0
      ],
      "type": "VEC3"
    },
    {
      "bufferView": 3,
      "byteOffset": 68144,
      "componentType": 5126,
      "count": 36,
      "max": [
        1.0,
        1.0507358183531323e-06,
        1.702166940731331e-08,
        1.0
      ],
      "min": [
        1.0,
        5.871355028830294e-07,
        -1.2296849263293552e-06,
        1.0
      ],
      "type": "VEC4"
    },
    {
      "bufferView": 1,
      "byteOffset": 34072,
      "componentType": 5126,
      "count": 36,
      "max": [
        0.9980720281600952,
        1.0
      ],
      "min": [
        0.0017794966697692871,
        0.00333068473264575
      ],
      "type": "VEC2"
    },
    {
      "bufferView": 0,
      "byteOffset": 72252,
      "componentType": 5125,
      "count": 96,
      "type": "SCALAR"
    }
  ],
  "asset": {
    "extras": {
      "author": "lewisme98 (https://sketchfab.com/lewisme98)",
      "license": "CC-BY-4.0 (http://creativecommons.org/licenses/by/4.0/)",
      "source": "https://sketchfab.com/3d-models/medical-syringe-5023e275effa44478fca80d2ea3260d0",
      "title": "Medical Syringe"
    },
    "generator": "Sketchfab-16.25.0",
    "version": "2.0"
  },
  "bufferViews": [
    {
      "buffer": 0,
      "byteLength": 72636,
      "name": "floatBufferViews",
      "target": 34963
    },
    {
      "buffer": 0,
      "byteLength": 34360,
      "byteOffset": 72636,
      "byteStride": 8,
      "name": "floatBufferViews",
      "target": 34962
    },
    {
      "buffer": 0,
      "byteLength": 103080,
      "byteOffset": 106996,
      "byteStride": 12,
      "name": "floatBufferViews",
      "target": 34962
    },
    {
      "buffer": 0,
      "byteLength": 68720,
      "byteOffset": 210076,
      "byteStride": 16,
      "name": "floatBufferViews",
      "target": 34962
    }
  ],
  "buffers": [
    {
      "byteLength": 278796,
      "uri": "scene.bin"
    }
  ],
  "images": [
    {
      "uri": "textures/Base_baseColor.png"
    },
    {
      "uri": "textures/Base_metallicRoughness.png"
    },
    {
      "uri": "textures/Base_normal.png"
    },
    {
      "uri": "textures/Glass_baseColor.png"
    },
    {
      "uri": "textures/Glass_metallicRoughness.png"
    },
    {
      "uri": "textures/Glass_normal.png"
    }
  ],
  "materials": [
    {
      "doubleSided": true,
      "name": "Base",
      "normalTexture": {
        "index": 2
      },
      "occlusionTexture": {
        "index": 1
      },
      "pbrMetallicRoughness": {
        "baseColorTexture": {
          "index": 0
        },
        "metallicRoughnessTexture": {
          "index": 1
        }
      }
    },
    {
      "alphaMode": "BLEND",
      "doubleSided": true,
      "name": "Glass",
      "normalTexture": {
        "index": 5
      },
      "occlusionTexture": {
        "index": 4
      },
      "pbrMetallicRoughness": {
        "baseColorFactor": [
          1.0,
          1.0,
          1.0,
          0.6567639063280954
        ],
        "baseColorTexture": {
          "index": 3
        },
        "metallicFactor": 0.0,
        "metallicRoughnessTexture": {
          "index": 4
        }
      }
    }
  ],
  "meshes": [
    {
      "name": "Syringe_sm_Base_0",
      "primitives": [
        {
          "attributes": {
            "NORMAL": 1,
            "POSITION": 0,
            "TANGENT": 2,
            "TEXCOORD_0": 3
          },
          "indices": 4,
          "material": 0,
          "mode": 4
        }
      ]
    },
    {
      "name": "Syringe_sm_Glass_0",
      "primitives": [
        {
          "attributes": {
            "NORMAL": 6,
            "POSITION": 5,
            "TANGENT": 7,
            "TEXCOORD_0": 8
          },
          "indices": 9,
          "material": 1,
          "mode": 4
        }
      ]
    }
  ],
  "nodes": [
    {
      "children": [
        1
      ],
      "matrix": [
        1.0,
        0.0,
        0.0,
        0.0,
        0.0,
        2.220446049250313e-16,
        -1.0,
        0.0,
        0.0,
        1.0,
        2.220446049250313e-16,
        0.0,
        0.0,
        0.0,
        0.0,
        1.0
      ],
      "name": "Sketchfab_model"
    },
    {
      "children": [
        2
      ],
      "matrix": [
        0.009999999776482582,
        0.0,
        0.0,
        0.0,
        0.0,
        0.0,
        0.009999999776482582,
        0.0,
        0.0,
        -0.009999999776482582,
        0.0,
        0.0,
        0.0,
        0.0,
        0.0,
        1.0
      ],
      "name": "71001838fb574059a61648686a2c80ff.fbx"
    },
    {
      "children": [
        3
      ],
      "name": "RootNode"
    },
    {
      "children": [
        4
      ],
      "matrix": [
        -0.999999999999996,
        -1.2246468525851679e-16,
        8.742277669594042e-08,
        0.0,
        8.742277669594042e-08,
        -2.220446049250313e-16,
        0.9999999999999962,
        0.0,
        -1.2246467202362698e-16,
        1.0,
        2.220446049250313e-16,
        0.0,
        0.0,
        0.0,
        0.0,
        1.0
      ],
      "name": "Syringe_sm"
    },
    {
      "children": [
        5,
        6
      ],
      "matrix": [
        1.0,
        0.0,
        -0.0,
        0.0,
        0.0,
        1.0,
        0.0,
        0.0,
        0.0,
        0.0,
        1.0,
        0.0,
        -5.966176509857178,
        -14.780479431152344,
        -22.794906616210938,
        1.0
      ],
      "name": "Object_4"
    },
    {
      "mesh": 0,
      "name": "Syringe_sm_Base_0"
    },
    {
      "mesh": 1,
      "name": "Syringe_sm_Glass_0"
    }
  ],
  "samplers": [
    {
      "magFilter": 9729,
      "minFilter": 9987,
      "wrapS": 10497,
      "wrapT": 10497
    }
  ],
  "scene": 0,
  "scenes": [
    {
      "name": "Sketchfab_Scene",
      "nodes": [
        0
      ]
    }
  ],
  "textures": [
    {
      "sampler": 0,
      "source": 0
    },
    {
      "sampler": 0,
      "source": 1
    },
    {
      "sampler": 0,
      "source": 2
    },
    {
      "sampler": 0,
      "source": 3
    },
    {
      "sampler": 0,
      "source": 4
    },
    {
      "sampler": 0,
      "source": 5
    }
  ]
}
