{
  "accessors": [
    {
      "bufferView": 2,
      "componentType": 5126,
      "count": 2623,
      "max": [
        6.059645175933838,
        0.4254457652568817,
        0.1342378407716751
      ],
      "min": [
        -4.489166259765625,
        -0.6915191411972046,
        -0.179294154047966
      ],
      "type": "VEC3"
    },
    {
      "bufferView": 2,
      "byteOffset": 31476,
      "componentType": 5126,
      "count": 2623,
      "max": [
        0.9999796748161316,
        1.0,
        1.0
      ],
      "min": [
        -0.9998927712440491,
        -1.0,
        -1.0
      ],
      "type": "VEC3"
    },
    {
      "bufferView": 3,
      "componentType": 5126,
      "count": 2623,
      "max": [
        1.0,
        0.9999940991401672,
        1.0,
        1.0
      ],
      "min": [
        -0.830451250076294,
        -0.999812662601471,
        -1.0,
        -1.0
      ],
      "type": "VEC4"
    },
    {
      "bufferView": 1,
      "componentType": 5126,
      "count": 2623,
      "max": [
        0.6173701286315918,
        0.9980239868164063
      ],
      "min": [
        0.0015775412321090698,
        -0.003325393423438072
      ],
      "type": "VEC2"
    },
    {
      "bufferView": 0,
      "componentType": 5125,
      "count": 12681,
      "type": "SCALAR"
    },
    {
      "bufferView": 2,
      "byteOffset": 62952,
      "componentType": 5126,
      "count": 1043,
      "max": [
        0.48870283365249634,
        0.5,
        0.5036168098449707
      ],
      "min": [
        -0.5048755407333374,
        -0.460300475358963,
        -0.5003051161766052
      ],
      "type": "VEC3"
    },
    {
      "bufferView": 2,
      "byteOffset": 75468,
      "componentType": 5126,
      "count": 1043,
      "max": [
        0.9990828633308411,
        1.0,
        1.0
      ],
      "min": [
        -0.9870653748512268,
        -0.9884246587753296,
        -1.0
      ],
      "type": "VEC3"
    },
    {
      "bufferView": 3,
      "byteOffset": 41968,
      "componentType": 5126,
      "count": 1043,
      "max": [
        0.27660423517227173,
        0.9999967813491821,
        0.9999980926513672,
        1.0
      ],
      "min": [
        -0.4378837049007416,
        -0.9999855756759644,
        -1.0,
        1.0
      ],
      "type": "VEC4"
    },
    {
      "bufferView": 1,
      "byteOffset": 20984,
      "componentType": 5126,
      "count": 1043,
      "max": [
        0.7543430924415588,
        0.794446587562561
      ],
      "min": [
        0.45776474475860596,
        0.38516920804977417
      ],
      "type": "VEC2"
    },
    {
      "bufferView": 0,
      "byteOffset": 50724,
      "componentType": 5125,
      "count": 4752,
      "type": "SCALAR"
    },
    {
      "bufferView": 2,
      "byteOffset": 87984,
      "componentType": 5126,
      "count": 902,
      "max": [
        0.5042665004730225,
        0.6942245960235596,
        0.4999999701976776
      ],
      "min": [
        -0.49985992908477783,
        -0.7094162106513977,
        -0.4999999403953552
      ],
      "type": "VEC3"
    },
    {
      "bufferView": 2,
      "byteOffset": 98808,
      "componentType": 5126,
      "count": 902,
      "max": [
        0.9999982118606567,
        0.999992311000824,
        1.0
      ],
      "min": [
        -0.9999929070472717,
        -0.9999887943267822,
        -1.0
      ],
      "type": "VEC3"
    },
    {
      "bufferView": 3,
      "byteOffset": 58656,
      "componentType": 5126,
      "count": 902,
      "max": [
        0.9999986886978149,
        0.9986509680747986,
        0.9999982118606567,
        1.0
      ],
      "min": [
        -0.9996994137763977,
        -0.9999982118606567,
        -0.999993622303009,
        1.0
      ],
      "type": "VEC4"
    },
    {
      "bufferView": 1,
      "byteOffset": 29328,
      "componentType": 5126,
      "count": 902,
      "max": [
        0.9727991819381714,
        0.6296566128730774
      ],
      "min": [
        0.7131381630897522,
        0.049305509775877
      ],
      "type": "VEC2"
    },
    {
      "bufferView": 0,
      "byteOffset": 69732,
      "componentType": 5125,
      "count": 3456,
      "type": "SCALAR"
    }
  ],
  "asset": {
    "extras": {
      "author": "Mcjavier123 (https://sketchfab.com/Mcjavier123)",
      "license": "CC-BY-4.0 (http://creativecommons.org/licenses/by/4.0/)",
      "source": "https://sketchfab.com/3d-models/bisturi-a7d6bfed39af40158cc72580d06df961",
      "title": "BISTURI"
    },
    "generator": "Sketchfab-15.49.0",
    "version": "2.0"
  },
  "bufferViews": [
    {
      "buffer": 0,
      "byteLength": 83556,
      "name": "floatBufferViews",
      "target": 34963
    },
    {
      "buffer": 0,
      "byteLength": 36544,
      "byteOffset": 83556,
      "byteStride": 8,
      "name": "floatBufferViews",
      "target": 34962
    },
    {
      "buffer": 0,
      "byteLength": 109632,
      "byteOffset": 120100,
      "byteStride": 12,
      "name": "floatBufferViews",
      "target": 34962
    },
    {
      "buffer": 0,
      "byteLength": 73088,
      "byteOffset": 229732,
      "byteStride": 16,
      "name": "floatBufferViews",
      "target": 34962
    }
  ],
  "buffers": [
    {
      "byteLength": 302820,
      "uri": "scene.bin"
    }
  ],
  "images": [
    {
      "uri": "textures/BISTURI_baseColor.png"
    },
    {
      "uri": "textures/BISTURI_metallicRoughness.png"
    },
    {
      "uri": "textures/BISTURI_normal.png"
    }
  ],
  "materials": [
    {
      "doubleSided": true,
      "name": "BISTURI",
      "normalTexture": {
        "index": 2
      },
      "pbrMetallicRoughness": {
        "baseColorTexture": {
          "index": 0
        },
        "metallicRoughnessTexture": {
          "index": 1
        }
      }
    }
  ],
  "meshes": [
    {
      "name": "mango_BISTURI_0",
      "primitives": [
        {
          "attributes": {
            "NORMAL": 1,
            "POSITION": 0,
            "TANGENT": 2,
            "TEXCOORD_0": 3
          },
          "indices": 4,
          "material": 0,
          "mode": 4
        }
      ]
    },
    {
      "name": "filo_BISTURI_0",
      "primitives": [
        {
          "attributes": {
            "NORMAL": 6,
            "POSITION": 5,
            "TANGENT": 7,
            "TEXCOORD_0": 8
          },
          "indices": 9,
          "material": 0,
          "mode": 4
        }
      ]
    },
    {
      "name": "tope_BISTURI_0",
      "primitives": [
        {
          "attributes": {
            "NORMAL": 11,
            "POSITION": 10,
            "TANGENT": 12,
            "TEXCOORD_0": 13
          },
          "indices": 14,
          "material": 0,
          "mode": 4
        }
      ]
    }
  ],
  "nodes": [
    {
      "children": [
        1
      ],
      "matrix": [
        1.0,
        0.0,
        0.0,
        0.0,
        0.0,
        2.220446049250313e-16,
        -1.0,
        0.0,
        0.0,
        1.0,
        2.220446049250313e-16,
        0.0,
        0.0,
        0.0,
        0.0,
        1.0
      ],
      "name": "Sketchfab_model"
    },
    {
      "children": [
        2
      ],
      "matrix": [
        0.009999999776482582,
        0.0,
        0.0,
        0.0,
        0.0,
        0.0,
        0.009999999776482582,
        0.0,
        0.0,
        -0.009999999776482582,
        0.0,
        0.0,
        0.0,
        0.0,
        0.0,
        1.0
      ],
      "name": "BISTURI.fbx"
    },
    {
      "children": [
        3,
        5,
        7
      ],
      "name": "RootNode"
    },
    {
      "children": [
        4
      ],
      "name": "mango"
    },
    {
      "mesh": 0,
      "name": "mango_BISTURI_0"
    },
    {
      "children": [
        6
      ],
      "matrix": [
        4.25897741317749,
        0.0,
        0.0,
        0.0,
        0.0,
        0.8365432024002075,
        0.0,
        0.0,
        0.0,
        0.0,
        0.15601354837417603,
        0.0,
        -3.8704304695129395,
        -0.21279050409793854,
        0.021287867799401283,
        1.0
      ],
      "name": "filo"
    },
    {
      "mesh": 1,
      "name": "filo_BISTURI_0"
    },
    {
      "children": [
        8
      ],
      "matrix": [
        1.967407464981079,
        0.0,
        0.0,
        0.0,
        0.0,
        0.2222222238779068,
        0.0,
        0.0,
        0.0,
        0.0,
        0.2914546728134155,
        0.0,
        -3.4943175315856934,
        -0.05712967738509178,
        -0.007391825318336487,
        1.0
      ],
      "name": "tope"
    },
    {
      "mesh": 2,
      "name": "tope_BISTURI_0"
    }
  ],
  "samplers": [
    {
      "magFilter": 9729,
      "minFilter": 9987,
      "wrapS": 10497,
      "wrapT": 10497
    }
  ],
  "scene": 0,
  "scenes": [
    {
      "name": "Sketchfab_Scene",
      "nodes": [
        0
      ]
    }
  ],
  "textures": [
    {
      "sampler": 0,
      "source": 0
    },
    {
      "sampler": 0,
      "source": 1
    },
    {
      "sampler": 0,
      "source": 2
    }
  ]
}
