{
  "accessors": [
    {
      "bufferView": 2,
      "componentType": 5126,
      "count": 7931,
      "max": [
        0.31728270649909973,
        0.881122887134552,
        0.3172827661037445
      ],
      "min": [
        -0.3172827661037445,
        -0.8183856010437012,
        -0.3172827363014221
      ],
      "type": "VEC3"
    },
    {
      "bufferView": 2,
      "byteOffset": 95172,
      "componentType": 5126,
      "count": 7931,
      "max": [
        1.0,
        1.0,
        1.0
      ],
      "min": [
        -1.0,
        -1.0,
        -1.0
      ],
      "type": "VEC3"
    },
    {
      "bufferView": 3,
      "componentType": 5126,
      "count": 7931,
      "max": [
        1.0,
        0.9999998211860657,
        1.0,
        1.0
      ],
      "min": [
        -0.9999998807907104,
        -0.9999998807907104,
        -0.9999999403953552,
        -1.0
      ],
      "type": "VEC4"
    },
    {
      "bufferView": 1,
      "componentType": 5126,
      "count": 7931,
      "max": [
        0.9998798966407776,
        0.8014954328536987
      ],
      "min": [
        0.1590677946805954,
        0.00012021637667203322
      ],
      "type": "VEC2"
    },
    {
      "bufferView": 0,
      "componentType": 5125,
      "count": 39360,
      "type": "SCALAR"
    },
    {
      "bufferView": 2,
      "byteOffset": 190344,
      "componentType": 5126,
      "count": 223,
      "max": [
        0.1255459040403366,
        0.923285722732544,
        0.12554511427879333
      ],
      "min": [
        -0.1255459040403366,
        0.876431941986084,
        -0.12554509937763214
      ],
      "type": "VEC3"
    },
    {
      "bufferView": 2,
      "byteOffset": 193020,
      "componentType": 5126,
      "count": 223,
      "max": [
        0.7902125716209412,
        1.0,
        0.7902912497520447
      ],
      "min": [
        -0.7903438210487366,
        0.6080677509307861,
        -0.7902912497520447
      ],
      "type": "VEC3"
    },
    {
      "bufferView": 1,
      "byteOffset": 63448,
      "componentType": 5126,
      "count": 223,
      "max": [
        1.0000001192092896,
        1.0000001192092896
      ],
      "min": [
        0.0,
        0.0
      ],
      "type": "VEC2"
    },
    {
      "bufferView": 0,
      "byteOffset": 157440,
      "componentType": 5125,
      "count": 1152,
      "type": "SCALAR"
    },
    {
      "bufferView": 2,
      "byteOffset": 195696,
      "componentType": 5126,
      "count": 4573,
      "max": [
        0.31728270649909973,
        -0.7782121896743774,
        0.3172827661037445
      ],
      "min": [
        -0.31728270649909973,
        -0.8689318895339966,
        -0.3172827363014221
      ],
      "type": "VEC3"
    },
    {
      "bufferView": 2,
      "byteOffset": 250572,
      "componentType": 5126,
      "count": 4573,
      "max": [
        1.0,
        1.0,
        1.0
      ],
      "min": [
        -1.0,
        0.0,
        -1.0
      ],
      "type": "VEC3"
    },
    {
      "bufferView": 1,
      "byteOffset": 65232,
      "componentType": 5126,
      "count": 4573,
      "max": [
        1.0000001192092896,
        1.0000001192092896
      ],
      "min": [
        0.0,
        0.0
      ],
      "type": "VEC2"
    },
    {
      "bufferView": 0,
      "byteOffset": 162048,
      "componentType": 5125,
      "count": 20328,
      "type": "SCALAR"
    },
    {
      "bufferView": 2,
      "byteOffset": 305448,
      "componentType": 5126,
      "count": 10441,
      "max": [
        0.2400623857975006,
        -0.7533436417579651,
        0.23979736864566803
      ],
      "min": [
        -0.2400623857975006,
        -0.855129599571228,
        -0.2397581934928894
      ],
      "type": "VEC3"
    },
    {
      "bufferView": 2,
      "byteOffset": 430740,
      "componentType": 5126,
      "count": 10441,
      "max": [
        0.9985184073448181,
        -0.0544152557849884,
        0.9965701699256897
      ],
      "min": [
        -0.9985184073448181,
        -1.0,
        -0.9965701699256897
      ],
      "type": "VEC3"
    },
    {
      "bufferView": 1,
      "byteOffset": 101816,
      "componentType": 5126,
      "count": 10441,
      "max": [
        1.000001072883606,
        1.0000003576278687
      ],
      "min": [
        -6.197182642608823e-07,
        0.0
      ],
      "type": "VEC2"
    },
    {
      "bufferView": 0,
      "byteOffset": 243360,
      "componentType": 5125,
      "count": 56448,
      "type": "SCALAR"
    }
  ],
  "asset": {
    "extras": {
      "author": "berzerkey (https://sketchfab.com/berzerkey)",
      "license": "CC-BY-4.0 (http://creativecommons.org/licenses/by/4.0/)",
      "source": "https://sketchfab.com/3d-models/uv-flashlight-3accf71c39ba4aa9ad5d2195db2006c7",
      "title": "UV Flashlight"
    },
    "generator": "Sketchfab-12.67.0",
    "version": "2.0"
  },
  "bufferViews": [
    {
      "buffer": 0,
      "byteLength": 469152,
      "name": "floatBufferViews",
      "target": 34963
    },
    {
      "buffer": 0,
      "byteLength": 185344,
      "byteOffset": 469152,
      "byteStride": 8,
      "name": "floatBufferViews",
      "target": 34962
    },
    {
      "buffer": 0,
      "byteLength": 556032,
      "byteOffset": 654496,
      "byteStride": 12,
      "name": "floatBufferViews",
      "target": 34962
    },
    {
      "buffer": 0,
      "byteLength": 126896,
      "byteOffset": 1210528,
      "byteStride": 16,
      "name": "floatBufferViews",
      "target": 34962
    }
  ],
  "buffers": [
    {
      "byteLength": 1337424,
      "uri": "scene.bin"
    }
  ],
  "extensionsUsed": [
    "KHR_materials_transmission"
  ],
  "images": [
    {
      "uri": "textures/diamond_mat_normal.png"
    }
  ],
  "materials": [
    {
      "doubleSided": true,
      "name": "diamond_mat",
      "normalTexture": {
        "index": 0,
        "scale": 0.634048057688683
      },
      "pbrMetallicRoughness": {
        "baseColorFactor": [
          0.05487356279906852,
          0.05487356279906852,
          0.05487356279906852,
          1.0
        ],
        "roughnessFactor": 0.2570773215621181
      }
    },
    {
      "doubleSided": true,
      "name": "m_rubber",
      "pbrMetallicRoughness": {
        "baseColorFactor": [
          0.0,
          0.0,
          0.0,
          1.0
        ],
        "metallicFactor": 0.0,
        "roughnessFactor": 0.7191704819753267
      }
    },
    {
      "doubleSided": true,
      "name": "m_chrome",
      "pbrMetallicRoughness": {
        "baseColorFactor": [
          0.8,
          0.8,
          0.8,
          1.0
        ],
        "roughnessFactor": 0.0
      }
    },
    {
      "alphaMode": "BLEND",
      "doubleSided": true,
      "emissiveFactor": [
        0.12518225358363527,
        0.0,
        1.0
      ],
      "extensions": {
        "KHR_materials_transmission": {
          "transmissionFactor": 1.0
        }
      },
      "name": "m_bulb",
      "pbrMetallicRoughness": {
        "baseColorFactor": [
          0.8,
          0.8,
          0.8,
          0.25
        ],
        "metallicFactor": 0.0
      }
    }
  ],
  "meshes": [
    {
      "name": "g_flashlightbody_diamond_mat_0",
      "primitives": [
        {
          "attributes": {
            "NORMAL": 1,
            "POSITION": 0,
            "TANGENT": 2,
            "TEXCOORD_0": 3
          },
          "indices": 4,
          "material": 0,
          "mode": 4
        }
      ]
    },
    {
      "name": "g_rubberbutton_m_rubber_0",
      "primitives": [
        {
          "attributes": {
            "NORMAL": 6,
            "POSITION": 5,
            "TEXCOORD_0": 7
          },
          "indices": 8,
          "material": 1,
          "mode": 4
        }
      ]
    },
    {
      "name": "g_headpiece_m_chrome_0",
      "primitives": [
        {
          "attributes": {
            "NORMAL": 10,
            "POSITION": 9,
            "TEXCOORD_0": 11
          },
          "indices": 12,
          "material": 2,
          "mode": 4
        }
      ]
    },
    {
      "name": "g_bulbs_m_bulb_0",
      "primitives": [
        {
          "attributes": {
            "NORMAL": 14,
            "POSITION": 13,
            "TEXCOORD_0": 15
          },
          "indices": 16,
          "material": 3,
          "mode": 4
        }
      ]
    }
  ],
  "nodes": [
    {
      "children": [
        1
      ],
      "matrix": [
        1.0,
        9.569114508355575e-17,
        -1.292431458282581e-16,
        0.0,
        0.0,
        -0.8036895990371703,
        -0.595048785209656,
        0.0,
        -1.6081226229577292e-16,
        0.595048785209656,
        -0.8036895990371703,
        0.0,
        -6.617444900424222e-24,
        0.021841866895556453,
        -0.011005346663296217,
        1.0
      ],
      "name": "Sketchfab_model"
    },
    {
      "children": [
        2
      ],
      "matrix": [
        0.009999999776482582,
        0.0,
        0.0,
        0.0,
        0.0,
        0.0,
        0.009999999776482582,
        0.0,
        0.0,
        -0.009999999776482582,
        0.0,
        0.0,
        0.0,
        0.0,
        0.0,
        1.0
      ],
      "name": "7a5ba8a96490421c8328de68c9f09a1e.fbx"
    },
    {
      "children": [
        3,
        5,
        7,
        9
      ],
      "name": "RootNode"
    },
    {
      "children": [
        4
      ],
      "matrix": [
        100.0,
        0.0,
        0.0,
        0.0,
        0.0,
        -1.629206793918314e-05,
        -99.99999999999868,
        0.0,
        0.0,
        99.99999999999868,
        -1.629206793918314e-05,
        0.0,
        0.0,
        0.0,
        0.0,
        1.0
      ],
      "name": "g_flashlightbody"
    },
    {
      "mesh": 0,
      "name": "g_flashlightbody_diamond_mat_0"
    },
    {
      "children": [
        6
      ],
      "matrix": [
        100.0,
        0.0,
        0.0,
        0.0,
        0.0,
        -1.629206793918314e-05,
        -99.99999999999868,
        0.0,
        0.0,
        99.99999999999868,
        -1.629206793918314e-05,
        0.0,
        0.0,
        0.0,
        0.0,
        1.0
      ],
      "name": "g_rubberbutton"
    },
    {
      "mesh": 1,
      "name": "g_rubberbutton_m_rubber_0"
    },
    {
      "children": [
        8
      ],
      "matrix": [
        100.0,
        0.0,
        0.0,
        0.0,
        0.0,
        -1.629206793918314e-05,
        -99.99999999999868,
        0.0,
        0.0,
        99.99999999999868,
        -1.629206793918314e-05,
        0.0,
        0.0,
        0.0,
        0.0,
        1.0
      ],
      "name": "g_headpiece"
    },
    {
      "mesh": 2,
      "name": "g_headpiece_m_chrome_0"
    },
    {
      "children": [
        10
      ],
      "matrix": [
        100.0,
        0.0,
        0.0,
        0.0,
        0.0,
        -1.629206793918314e-05,
        -99.99999999999868,
        0.0,
        0.0,
        99.99999999999868,
        -1.629206793918314e-05,
        0.0,
        0.0,
        0.0,
        0.0,
        1.0
      ],
      "name": "g_bulbs"
    },
    {
      "mesh": 3,
      "name": "g_bulbs_m_bulb_0"
    }
  ],
  "samplers": [
    {
      "magFilter": 9729,
      "minFilter": 9987,
      "wrapS": 10497,
      "wrapT": 10497
    }
  ],
  "scene": 0,
  "scenes": [
    {
      "name": "Sketchfab_Scene",
      "nodes": [
        0
      ]
    }
  ],
  "textures": [
    {
      "sampler": 0,
      "source": 0
    }
  ]
}
