{
  "accessors": [
    {
      "bufferView": 1,
      "componentType": 5126,
      "count": 4673,
      "max": [
        0.991569995880127,
        0.991569995880127,
        0.06583999842405319
      ],
      "min": [
        -0.991569995880127,
        -0.991569995880127,
        -0.039730001240968704
      ],
      "type": "VEC3"
    },
    {
      "bufferView": 1,
      "byteOffset": 56076,
      "componentType": 5126,
      "count": 4673,
      "max": [
        1.0,
        1.0,
        1.0
      ],
      "min": [
        -1.0,
        -1.0,
        -0.997153639793396
      ],
      "type": "VEC3"
    },
    {
      "bufferView": 0,
      "componentType": 5125,
      "count": 26880,
      "type": "SCALAR"
    },
    {
      "bufferView": 1,
      "byteOffset": 112152,
      "componentType": 5126,
      "count": 1152,
      "max": [
        0.9805999994277954,
        0.9805999994277954,
        0.031849998980760574
      ],
      "min": [
        -0.9805999994277954,
        -0.9805999994277954,
        0.0008500000112690032
      ],
      "type": "VEC3"
    },
    {
      "bufferView": 1,
      "byteOffset": 125976,
      "componentType": 5126,
      "count": 1152,
      "max": [
        1.0,
        1.0,
        0.9972007870674133
      ],
      "min": [
        -1.0,
        -1.0,
        0.0
      ],
      "type": "VEC3"
    },
    {
      "bufferView": 0,
      "byteOffset": 107520,
      "componentType": 5125,
      "count": 6144,
      "type": "SCALAR"
    },
    {
      "bufferView": 1,
      "byteOffset": 139800,
      "componentType": 5126,
      "count": 6319,
      "max": [
        0.9244599938392639,
        0.9244599938392639,
        0.3199400007724762
      ],
      "min": [
        -0.9244599938392639,
        -0.9244599938392639,
        0.03815999999642372
      ],
      "type": "VEC3"
    },
    {
      "bufferView": 1,
      "byteOffset": 215628,
      "componentType": 5126,
      "count": 6319,
      "max": [
        0.4003292918205261,
        0.4003292918205261,
        -0.9163176417350769
      ],
      "min": [
        -0.4003292918205261,
        -0.4003292918205261,
        -1.0
      ],
      "type": "VEC3"
    },
    {
      "bufferView": 0,
      "byteOffset": 132096,
      "componentType": 5125,
      "count": 17664,
      "type": "SCALAR"
    },
    {
      "bufferView": 1,
      "byteOffset": 291456,
      "componentType": 5126,
      "count": 320,
      "max": [
        1.0,
        1.0,
        2.2848899364471436
      ],
      "min": [
        -1.0,
        -1.0,
        -1.0
      ],
      "type": "VEC3"
    },
    {
      "bufferView": 1,
      "byteOffset": 295296,
      "componentType": 5126,
      "count": 320,
      "max": [
        0.9951844215393066,
        0.9951844215393066,
        1.0
      ],
      "min": [
        -0.9951844215393066,
        -0.9951844215393066,
        -1.0
      ],
      "type": "VEC3"
    },
    {
      "bufferView": 0,
      "byteOffset": 202752,
      "componentType": 5125,
      "count": 756,
      "type": "SCALAR"
    },
    {
      "bufferView": 1,
      "byteOffset": 299136,
      "componentType": 5126,
      "count": 1472,
      "max": [
        3.409670114517212,
        3.409670114517212,
        1.2619999647140503
      ],
      "min": [
        -3.409670114517212,
        -3.409670114517212,
        -4.710770130157471
      ],
      "type": "VEC3"
    },
    {
      "bufferView": 1,
      "byteOffset": 316800,
      "componentType": 5126,
      "count": 1472,
      "max": [
        1.0,
        1.0,
        1.0
      ],
      "min": [
        -1.0,
        -1.0,
        -1.0
      ],
      "type": "VEC3"
    },
    {
      "bufferView": 0,
      "byteOffset": 205776,
      "componentType": 5125,
      "count": 8448,
      "type": "SCALAR"
    },
    {
      "bufferView": 1,
      "byteOffset": 334464,
      "componentType": 5126,
      "count": 1472,
      "max": [
        3.409670114517212,
        3.409670114517212,
        1.2619999647140503
      ],
      "min": [
        -3.409670114517212,
        -3.409670114517212,
        -4.710770130157471
      ],
      "type": "VEC3"
    },
    {
      "bufferView": 1,
      "byteOffset": 352128,
      "componentType": 5126,
      "count": 1472,
      "max": [
        1.0,
        1.0,
        1.0
      ],
      "min": [
        -1.0,
        -1.0,
        -1.0
      ],
      "type": "VEC3"
    },
    {
      "bufferView": 0,
      "byteOffset": 239568,
      "componentType": 5125,
      "count": 8448,
      "type": "SCALAR"
    },
    {
      "bufferView": 1,
      "byteOffset": 369792,
      "componentType": 5126,
      "count": 907,
      "max": [
        10.17096996307373,
        0.11900000274181366,
        0.11900000274181366
      ],
      "min": [
        -2.759550094604492,
        -8.592780113220215,
        -0.33715999126434326
      ],
      "type": "VEC3"
    },
    {
      "bufferView": 1,
      "byteOffset": 380676,
      "componentType": 5126,
      "count": 907,
      "max": [
        1.0,
        0.9999900460243225,
        1.0
      ],
      "min": [
        -0.99940025806427,
        -0.9999900460243225,
        -1.0
      ],
      "type": "VEC3"
    },
    {
      "bufferView": 0,
      "byteOffset": 273360,
      "componentType": 5125,
      "count": 5376,
      "type": "SCALAR"
    },
    {
      "bufferView": 1,
      "byteOffset": 391560,
      "componentType": 5126,
      "count": 340,
      "max": [
        5.790760040283203,
        0.1214900016784668,
        0.08299999684095383
      ],
      "min": [
        -1.0048400163650513,
        -3.334700107574463,
        -0.08299999684095383
      ],
      "type": "VEC3"
    },
    {
      "bufferView": 1,
      "byteOffset": 395640,
      "componentType": 5126,
      "count": 340,
      "max": [
        0.9997965693473816,
        0.9992582201957703,
        1.0
      ],
      "min": [
        -0.9997652173042297,
        -0.9992582201957703,
        -1.0
      ],
      "type": "VEC3"
    },
    {
      "bufferView": 0,
      "byteOffset": 294864,
      "componentType": 5125,
      "count": 1920,
      "type": "SCALAR"
    },
    {
      "bufferView": 1,
      "byteOffset": 399720,
      "componentType": 5126,
      "count": 340,
      "max": [
        5.517449855804443,
        4.90084981918335,
        0.08500000089406967
      ],
      "min": [
        -0.8891800045967102,
        -0.039639998227357864,
        -0.08500000089406967
      ],
      "type": "VEC3"
    },
    {
      "bufferView": 1,
      "byteOffset": 403800,
      "componentType": 5126,
      "count": 340,
      "max": [
        0.9985533356666565,
        0.9793968796730042,
        0.9999999403953552
      ],
      "min": [
        -0.998541533946991,
        -0.9793849587440491,
        -0.9999999403953552
      ],
      "type": "VEC3"
    },
    {
      "bufferView": 0,
      "byteOffset": 302544,
      "componentType": 5125,
      "count": 1920,
      "type": "SCALAR"
    },
    {
      "bufferView": 1,
      "byteOffset": 407880,
      "componentType": 5126,
      "count": 6626,
      "max": [
        0.30983999371528625,
        0.0785600021481514,
        0.08608999848365784
      ],
      "min": [
        -2.3390800952911377,
        -3.997529983520508,
        -0.08608999848365784
      ],
      "type": "VEC3"
    },
    {
      "bufferView": 1,
      "byteOffset": 487392,
      "componentType": 5126,
      "count": 6626,
      "max": [
        0.9992590546607971,
        0.9999288320541382,
        1.0
      ],
      "min": [
        -0.9990058541297913,
        -0.9999240636825562,
        -1.0
      ],
      "type": "VEC3"
    },
    {
      "bufferView": 0,
      "byteOffset": 310224,
      "componentType": 5125,
      "count": 39744,
      "type": "SCALAR"
    }
  ],
  "asset": {
    "extras": {
      "author": "Jesus_Alberto (https://sketchfab.com/Jesus_Alberto)",
      "license": "CC-BY-4.0 (http://creativecommons.org/licenses/by/4.0/)",
      "source": "https://sketchfab.com/3d-models/estetoscopio-a95cd7368d7942e2bbce1c3d2cdd2241",
      "title": "ESTETOSCOPIO"
    },
    "generator": "Sketchfab-12.68.0",
    "version": "2.0"
  },
  "bufferViews": [
    {
      "buffer": 0,
      "byteLength": 469200,
      "name": "floatBufferViews",
      "target": 34963
    },
    {
      "buffer": 0,
      "byteLength": 566904,
      "byteOffset": 469200,
      "byteStride": 12,
      "name": "floatBufferViews",
      "target": 34962
    }
  ],
  "buffers": [
    {
      "byteLength": 1036104,
      "uri": "scene.bin"
    }
  ],
  "extensionsRequired": [
    "KHR_materials_pbrSpecularGlossiness"
  ],
  "extensionsUsed": [
    "KHR_materials_pbrSpecularGlossiness"
  ],
  "materials": [
    {
      "doubleSided": true,
      "extensions": {
        "KHR_materials_pbrSpecularGlossiness": {
          "diffuseFactor": [
            1.0,
            1.0,
            1.0,
            1.0
          ],
          "glossinessFactor": 0.4,
          "specularFactor": [
            1.0,
            1.0,
            1.0
          ]
        }
      },
      "name": "Material.002"
    },
    {
      "doubleSided": true,
      "extensions": {
        "KHR_materials_pbrSpecularGlossiness": {
          "diffuseFactor": [
            1.0,
            1.0,
            1.0,
            1.0
          ],
          "glossinessFactor": 0.9040404036641121,
          "specularFactor": [
            0.049549318850040436,
            0.049549318850040436,
            0.049549318850040436
          ]
        }
      },
      "name": "Material.003"
    },
    {
      "doubleSided": true,
      "extensions": {
        "KHR_materials_pbrSpecularGlossiness": {
          "diffuseFactor": [
            1.0,
            1.0,
            1.0,
            1.0
          ],
          "glossinessFactor": 0.38080811500549316,
          "specularFactor": [
            0.800000011920929,
            0.800000011920929,
            0.800000011920929
          ]
        }
      },
      "name": "Material.001"
    },
    {
      "doubleSided": true,
      "extensions": {
        "KHR_materials_pbrSpecularGlossiness": {
          "diffuseFactor": [
            1.0,
            1.0,
            1.0,
            1.0
          ],
          "glossinessFactor": 1.0,
          "specularFactor": [
            1.0,
            1.0,
            1.0
          ]
        }
      },
      "name": "Material.007"
    }
  ],
  "meshes": [
    {
      "name": "Circle_0",
      "primitives": [
        {
          "attributes": {
            "NORMAL": 1,
            "POSITION": 0
          },
          "indices": 2,
          "material": 0,
          "mode": 4
        }
      ]
    },
    {
      "name": "Circle_1",
      "primitives": [
        {
          "attributes": {
            "NORMAL": 4,
            "POSITION": 3
          },
          "indices": 5,
          "material": 3,
          "mode": 4
        }
      ]
    },
    {
      "name": "Circle.001_0",
      "primitives": [
        {
          "attributes": {
            "NORMAL": 7,
            "POSITION": 6
          },
          "indices": 8,
          "material": 0,
          "mode": 4
        }
      ]
    },
    {
      "name": "Cylinder_0",
      "primitives": [
        {
          "attributes": {
            "NORMAL": 10,
            "POSITION": 9
          },
          "indices": 11,
          "material": 0,
          "mode": 4
        }
      ]
    },
    {
      "name": "Circle.002_0",
      "primitives": [
        {
          "attributes": {
            "NORMAL": 13,
            "POSITION": 12
          },
          "indices": 14,
          "material": 2,
          "mode": 4
        }
      ]
    },
    {
      "name": "Circle.003_0",
      "primitives": [
        {
          "attributes": {
            "NORMAL": 16,
            "POSITION": 15
          },
          "indices": 17,
          "material": 2,
          "mode": 4
        }
      ]
    },
    {
      "name": "NurbsPath.001_0",
      "primitives": [
        {
          "attributes": {
            "NORMAL": 19,
            "POSITION": 18
          },
          "indices": 20,
          "material": 1,
          "mode": 4
        }
      ]
    },
    {
      "name": "BezierCurve_0",
      "primitives": [
        {
          "attributes": {
            "NORMAL": 22,
            "POSITION": 21
          },
          "indices": 23,
          "material": 0,
          "mode": 4
        }
      ]
    },
    {
      "name": "BezierCurve.001_0",
      "primitives": [
        {
          "attributes": {
            "NORMAL": 25,
            "POSITION": 24
          },
          "indices": 26,
          "material": 0,
          "mode": 4
        }
      ]
    },
    {
      "name": "BezierCurve.002_0",
      "primitives": [
        {
          "attributes": {
            "NORMAL": 28,
            "POSITION": 27
          },
          "indices": 29,
          "material": 0,
          "mode": 4
        }
      ]
    }
  ],
  "nodes": [
    {
      "children": [
        1
      ],
      "matrix": [
        1.0,
        0.0,
        0.0,
        0.0,
        0.0,
        2.220446049250313e-16,
        -1.0,
        0.0,
        0.0,
        1.0,
        2.220446049250313e-16,
        0.0,
        0.0,
        0.0,
        0.0,
        1.0
      ],
      "name": "Sketchfab_model"
    },
    {
      "children": [
        2,
        4,
        7,
        9,
        11,
        13,
        15,
        17,
        19,
        21
      ],
      "name": "Root"
    },
    {
      "children": [
        3
      ],
      "matrix": [
        -0.29086000000000006,
        0.9551700000000001,
        -0.05519000000000001,
        0.0,
        -0.7711,
        -0.19988000000000003,
        0.6045200000000001,
        0.0,
        0.5663900000000001,
        0.21839000000000003,
        0.7946700000000001,
        0.0,
        4.076250000000001,
        1.00545,
        5.903860000000001,
        1.0
      ],
      "name": "Lamp"
    },
    {
      "name": "Lamp"
    },
    {
      "children": [
        5,
        6
      ],
      "name": "Circle"
    },
    {
      "mesh": 0,
      "name": "Circle_0"
    },
    {
      "mesh": 1,
      "name": "Circle_1"
    },
    {
      "children": [
        8
      ],
      "name": "Circle.001"
    },
    {
      "mesh": 2,
      "name": "Circle.001_0"
    },
    {
      "children": [
        10
      ],
      "matrix": [
        0.10723000000000002,
        0.0,
        0.0,
        0.0,
        0.0,
        -0.0,
        0.10723000000000002,
        0.0,
        0.0,
        -0.21749000000000004,
        -0.0,
        0.0,
        0.0,
        -0.45907000000000003,
        0.20737,
        1.0
      ],
      "name": "Cylinder"
    },
    {
      "mesh": 3,
      "name": "Cylinder_0"
    },
    {
      "children": [
        12
      ],
      "matrix": [
        -0.027860000000000006,
        -0.10595,
        0.0,
        0.0,
        0.0,
        -0.0,
        -0.10956000000000002,
        0.0,
        0.10595,
        -0.027860000000000006,
        0.0,
        0.0,
        7.479600000000001,
        14.0568,
        -0.0,
        1.0
      ],
      "name": "Circle.002"
    },
    {
      "mesh": 4,
      "name": "Circle.002_0"
    },
    {
      "children": [
        14
      ],
      "matrix": [
        -0.014280000000000003,
        0.10862000000000002,
        0.0,
        0.0,
        -0.0,
        -0.0,
        -0.10956000000000002,
        0.0,
        -0.10862000000000002,
        -0.014280000000000003,
        0.0,
        0.0,
        3.36848,
        14.128619999999998,
        0.0,
        1.0
      ],
      "name": "Circle.003"
    },
    {
      "mesh": 5,
      "name": "Circle.003_0"
    },
    {
      "children": [
        16
      ],
      "matrix": [
        -0.0,
        1.0,
        0.0,
        0.0,
        -1.0,
        -0.0,
        0.0,
        0.0,
        0.0,
        0.0,
        1.0,
        0.0,
        0.0,
        -2.3100199999999997,
        0.21816000000000002,
        1.0
      ],
      "name": "NurbsPath.001"
    },
    {
      "mesh": 6,
      "name": "NurbsPath.001_0"
    },
    {
      "children": [
        18
      ],
      "matrix": [
        0.04086000000000001,
        0.9991599999999999,
        0.0,
        0.0,
        -0.9991599999999999,
        0.04086000000000001,
        0.0,
        0.0,
        0.0,
        0.0,
        1.0,
        0.0,
        3.4344499999999996,
        8.701889999999999,
        0.0,
        1.0
      ],
      "name": "BezierCurve"
    },
    {
      "mesh": 7,
      "name": "BezierCurve_0"
    },
    {
      "children": [
        20
      ],
      "matrix": [
        0.04086000000000001,
        0.9991599999999999,
        0.0,
        0.0,
        -0.9991599999999999,
        0.04086000000000001,
        0.0,
        0.0,
        0.0,
        0.0,
        1.0,
        0.0,
        8.463410000000001,
        8.701889999999999,
        0.0,
        1.0
      ],
      "name": "BezierCurve.001"
    },
    {
      "mesh": 8,
      "name": "BezierCurve.001_0"
    },
    {
      "children": [
        22
      ],
      "matrix": [
        0.05106000000000001,
        1.2485899999999999,
        0.0,
        0.0,
        -1.2485899999999999,
        0.05106000000000001,
        0.0,
        0.0,
        0.0,
        0.0,
        1.2496399999999999,
        0.0,
        3.4344499999999996,
        8.701889999999999,
        0.0,
        1.0
      ],
      "name": "BezierCurve.002"
    },
    {
      "mesh": 9,
      "name": "BezierCurve.002_0"
    }
  ],
  "scene": 0,
  "scenes": [
    {
      "name": "Sketchfab_Scene",
      "nodes": [
        0
      ]
    }
  ]
}
