{
  "accessors": [
    {
      "bufferView": 2,
      "componentType": 5126,
      "count": 542,
      "max": [
        4.538879871368408,
        4.469924449920654,
        60.20692825317383
      ],
      "min": [
        -4.538880348205566,
        -4.469924449920654,
        2.8969955444335938
      ],
      "type": "VEC3"
    },
    {
      "bufferView": 2,
      "byteOffset": 6504,
      "componentType": 5126,
      "count": 542,
      "max": [
        1.0,
        0.9848079085350037,
        1.0
      ],
      "min": [
        -1.0,
        -0.9848079681396484,
        -1.0
      ],
      "type": "VEC3"
    },
    {
      "bufferView": 3,
      "componentType": 5126,
      "count": 542,
      "max": [
        0.9988903403282166,
        1.0,
        1.0,
        1.0
      ],
      "min": [
        -0.9982051253318787,
        -1.0,
        -1.0,
        -1.0
      ],
      "type": "VEC4"
    },
    {
      "bufferView": 1,
      "componentType": 5126,
      "count": 542,
      "max": [
        1.0031464099884033,
        0.999500036239624
      ],
      "min": [
        0.0005000000237487257,
        0.0005162822199054062
      ],
      "type": "VEC2"
    },
    {
      "bufferView": 0,
      "componentType": 5125,
      "count": 1938,
      "type": "SCALAR"
    }
  ],
  "asset": {
    "extras": {
      "author": "doodyk2019 (https://sketchfab.com/doodyk2019)",
      "license": "CC-BY-4.0 (http://creativecommons.org/licenses/by/4.0/)",
      "source": "https://sketchfab.com/3d-models/morphine-auto-injector-338fcd5ea9de466ab71641ff9f528724",
      "title": "Morphine Auto Injector"
    },
    "generator": "Sketchfab-12.68.0",
    "version": "2.0"
  },
  "bufferViews": [
    {
      "buffer": 0,
      "byteLength": 7752,
      "name": "floatBufferViews",
      "target": 34963
    },
    {
      "buffer": 0,
      "byteLength": 4336,
      "byteOffset": 7752,
      "byteStride": 8,
      "name": "floatBufferViews",
      "target": 34962
    },
    {
      "buffer": 0,
      "byteLength": 13008,
      "byteOffset": 12088,
      "byteStride": 12,
      "name": "floatBufferViews",
      "target": 34962
    },
    {
      "buffer": 0,
      "byteLength": 8672,
      "byteOffset": 25096,
      "byteStride": 16,
      "name": "floatBufferViews",
      "target": 34962
    }
  ],
  "buffers": [
    {
      "byteLength": 33768,
      "uri": "scene.bin"
    }
  ],
  "images": [
    {
      "uri": "textures/Scene_-_Root_baseColor.png"
    },
    {
      "uri": "textures/Scene_-_Root_metallicRoughness.png"
    },
    {
      "uri": "textures/Scene_-_Root_normal.png"
    }
  ],
  "materials": [
    {
      "doubleSided": true,
      "name": "Scene_-_Root",
      "normalTexture": {
        "index": 2
      },
      "pbrMetallicRoughness": {
        "baseColorTexture": {
          "index": 0
        },
        "metallicRoughnessTexture": {
          "index": 1
        }
      }
    }
  ],
  "meshes": [
    {
      "name": "Morphine Auto Injector__0",
      "primitives": [
        {
          "attributes": {
            "NORMAL": 1,
            "POSITION": 0,
            "TANGENT": 2,
            "TEXCOORD_0": 3
          },
          "indices": 4,
          "material": 0,
          "mode": 4
        }
      ]
    }
  ],
  "nodes": [
    {
      "children": [
        1
      ],
      "matrix": [
        1.0,
        0.0,
        0.0,
        0.0,
        0.0,
        2.220446049250313e-16,
        -1.0,
        0.0,
        0.0,
        1.0,
        2.220446049250313e-16,
        0.0,
        0.0,
        0.0,
        0.0,
        1.0
      ],
      "name": "Sketchfab_model"
    },
    {
      "children": [
        2
      ],
      "matrix": [
        1.0,
        0.0,
        0.0,
        0.0,
        0.0,
        0.0,
        1.0,
        0.0,
        0.0,
        -1.0,
        0.0,
        0.0,
        0.0,
        0.0,
        0.0,
        1.0
      ],
      "name": "06fafed2a51740e9bd8fc4fa6dbf2ce2.fbx"
    },
    {
      "children": [
        3
      ],
      "name": "RootNode"
    },
    {
      "children": [
        4
      ],
      "matrix": [
        4.796983956382944e-08,
        -1.0974220037460318,
        -1.2183831762891203e-16,
        0.0,
        1.3035683533521992e-16,
        0.0,
        -1.174149990081787,
        0.0,
        1.0360389947891226,
        4.5286703126499337e-08,
        0.0,
        0.0,
        68.46012115478516,
        0.0,
        70.27059936523438,
        1.0
      ],
      "name": "Morphine Auto Injector"
    },
    {
      "mesh": 0,
      "name": "Morphine Auto Injector__0"
    }
  ],
  "samplers": [
    {
      "magFilter": 9729,
      "minFilter": 9987,
      "wrapS": 10497,
      "wrapT": 10497
    }
  ],
  "scene": 0,
  "scenes": [
    {
      "name": "Sketchfab_Scene",
      "nodes": [
        0
      ]
    }
  ],
  "textures": [
    {
      "sampler": 0,
      "source": 0
    },
    {
      "sampler": 0,
      "source": 1
    },
    {
      "sampler": 0,
      "source": 2
    }
  ]
}
